<svg id="arrow-violet" xmlns="http://www.w3.org/2000/svg" width="20" height="20" viewBox="0 0 20 20">
  <g id="arrow-forward">
    <rect id="Rectangle_16" data-name="Rectangle 16" width="20" height="20" transform="translate(0 20) rotate(-90)" fill="#473bf0" opacity="0"/>
    <path id="Tracé_1" data-name="Tracé 1" d="M4.842,11.74h9.992l-3.058,3.673a.844.844,0,0,0,1.3,1.078l4.212-5.055a1,1,0,0,0,.076-.126c0-.042.042-.067.059-.11a.809.809,0,0,0,0-.607c0-.042-.042-.067-.059-.11a1,1,0,0,0-.076-.126L13.073,5.3a.844.844,0,1,0-1.3,1.078l3.058,3.673H4.842a.842.842,0,1,0,0,1.685Z" transform="translate(-0.63 -0.788)" fill="#473bf0"/>
  </g>
</svg>
