<svg width="16" height="16" viewBox="0 0 16 16" fill="none" xmlns="http://www.w3.org/2000/svg">
<g clip-path="url(#clip0_11_53)">
<path d="M11.3333 8.00001V7.94001C11.3303 7.87602 11.3168 7.81296 11.2933 7.75334C11.2755 7.70762 11.2508 7.6649 11.22 7.62667C11.2023 7.59624 11.1822 7.56727 11.16 7.54001L9.25332 5.54001C9.19291 5.47653 9.1206 5.42558 9.0405 5.39006C8.9604 5.35453 8.87409 5.33513 8.78649 5.33297C8.60958 5.32859 8.43818 5.39467 8.30999 5.51667C8.1818 5.63867 8.10733 5.8066 8.10295 5.98351C8.09858 6.16042 8.16466 6.33182 8.28666 6.46001L9.10666 7.33334H5.33332C5.15651 7.33334 4.98694 7.40358 4.86192 7.5286C4.73689 7.65363 4.66666 7.82319 4.66666 8.00001C4.66666 8.17682 4.73689 8.34639 4.86192 8.47141C4.98694 8.59643 5.15651 8.66667 5.33332 8.66667H9.05999L8.19332 9.52667C8.13084 9.58865 8.08124 9.66238 8.0474 9.74362C8.01355 9.82486 7.99612 9.912 7.99612 10C7.99612 10.088 8.01355 10.1752 8.0474 10.2564C8.08124 10.3376 8.13084 10.4114 8.19332 10.4733C8.2553 10.5358 8.32903 10.5854 8.41027 10.6193C8.49151 10.6531 8.57865 10.6705 8.66666 10.6705C8.75466 10.6705 8.8418 10.6531 8.92304 10.6193C9.00428 10.5854 9.07801 10.5358 9.13999 10.4733L11.14 8.47334C11.2 8.41191 11.2475 8.33947 11.28 8.26001C11.315 8.17779 11.3332 8.08937 11.3333 8.00001Z" fill="#F7F7F2"/>
<path d="M8.00001 1.33334C6.68147 1.33334 5.39254 1.72434 4.29621 2.45688C3.19988 3.18942 2.3454 4.23061 1.84082 5.44879C1.33623 6.66696 1.20421 8.0074 1.46144 9.30061C1.71868 10.5938 2.35362 11.7817 3.28597 12.7141C4.21832 13.6464 5.4062 14.2813 6.69941 14.5386C7.99262 14.7958 9.33306 14.6638 10.5512 14.1592C11.7694 13.6546 12.8106 12.8001 13.5431 11.7038C14.2757 10.6075 14.6667 9.31855 14.6667 8.00001C14.6667 7.12453 14.4942 6.25762 14.1592 5.44879C13.8242 4.63995 13.3331 3.90502 12.7141 3.28596C12.095 2.66691 11.3601 2.17584 10.5512 1.84081C9.7424 1.50578 8.87549 1.33334 8.00001 1.33334ZM8.00001 13.3333C6.94518 13.3333 5.91403 13.0205 5.03697 12.4345C4.15991 11.8485 3.47632 11.0155 3.07266 10.041C2.66899 9.06645 2.56337 7.99409 2.76916 6.95953C2.97495 5.92496 3.4829 4.97465 4.22878 4.22877C4.97466 3.48289 5.92497 2.97494 6.95953 2.76916C7.9941 2.56337 9.06645 2.66899 10.041 3.07265C11.0155 3.47632 11.8485 4.15991 12.4345 5.03697C13.0206 5.91403 13.3333 6.94518 13.3333 8.00001C13.3333 9.4145 12.7714 10.7711 11.7712 11.7712C10.7711 12.7714 9.4145 13.3333 8.00001 13.3333Z" fill="#F7F7F2"/>
</g>
<defs>
<clipPath id="clip0_11_53">
<rect width="16" height="16" fill="white"/>
</clipPath>
</defs>
</svg>
