<svg width="158" height="158" viewBox="0 0 158 158" fill="none" xmlns="http://www.w3.org/2000/svg">
<path d="M59.933 4.23972C59.4121 4.35747 58.9667 4.55044 58.5968 4.81862C58.2268 5.0868 57.9371 5.41066 57.7276 5.79019C57.5123 6.17105 57.3811 6.59747 57.334 7.06947C57.2811 7.5428 57.3142 8.04281 57.4332 8.56952L59.1618 16.2156L57.4676 16.5986L55.739 8.95255C55.5749 8.22686 55.5398 7.52738 55.6337 6.85412C55.7217 6.18217 55.9306 5.56901 56.2605 5.01462C56.5858 4.46741 57.0295 3.99493 57.5917 3.59718C58.1538 3.19944 58.8211 2.91324 59.5936 2.7386C60.3661 2.56396 61.0917 2.53526 61.7702 2.65252C62.4488 2.76978 63.0555 3.00477 63.5905 3.35749C64.1268 3.71606 64.5821 4.17906 64.9564 4.74648C65.3249 5.31523 65.5911 5.96244 65.7552 6.68813L67.4838 14.3342L65.7895 14.7172L64.0629 7.07993C63.9439 6.55323 63.7616 6.08695 63.516 5.6811C63.2646 5.27658 62.9628 4.94806 62.6104 4.69554C62.2522 4.44434 61.8478 4.27434 61.3971 4.18554C60.9419 4.1039 60.4538 4.12196 59.933 4.23972Z" fill="#F7F7F2"/>
<path d="M43.7663 8.54265L45.3783 7.92019C45.5015 7.87265 45.6113 7.86561 45.7078 7.89908C45.8009 7.94031 45.885 7.99146 45.96 8.05253L51.1357 11.8619C51.1286 11.7103 51.1347 11.5761 51.1539 11.4593L52.4752 5.53676C52.5009 5.43678 52.5344 5.34025 52.5756 5.24714C52.6134 5.1618 52.6883 5.09751 52.8002 5.05429L54.3115 4.47073L52.5584 12.2483L58.7893 16.5668L57.1689 17.1925C57.0514 17.2379 56.957 17.2518 56.8859 17.2342C56.8148 17.2166 56.7428 17.1801 56.67 17.1246L51.669 13.5179C51.6752 13.6506 51.6662 13.802 51.6419 13.9722L50.3769 19.5161C50.3624 19.6117 50.333 19.6938 50.2887 19.7624C50.2466 19.8365 50.1836 19.8898 50.0996 19.9222L48.5464 20.522L50.3039 13.2057L43.7663 8.54265Z" fill="#F7F7F2"/>
<path d="M46.554 14.409L42.6233 16.4867L41.9882 15.2852L45.9189 13.2076L46.554 14.409Z" fill="#F7F7F2"/>
<path d="M33.1692 17.2528C32.7322 17.5596 32.3935 17.9073 32.1532 18.296C31.9129 18.6846 31.7679 19.0943 31.7184 19.525C31.6639 19.9591 31.7046 20.4034 31.8404 20.8578C31.9713 21.3158 32.1919 21.7657 32.5022 22.2077L37.0065 28.6234L35.5848 29.6215L31.0806 23.2058C30.6531 22.5968 30.3548 21.9632 30.1858 21.3047C30.0118 20.6498 29.9721 20.0032 30.0666 19.365C30.1596 18.7352 30.3905 18.1296 30.7594 17.5481C31.1282 16.9666 31.6367 16.4483 32.2849 15.9932C32.9331 15.5381 33.5933 15.2359 34.2655 15.0865C34.9378 14.9371 35.5883 14.9239 36.2171 15.0469C36.8494 15.1748 37.4465 15.4301 38.0084 15.8127C38.5653 16.1988 39.0576 16.6963 39.4851 17.3052L43.9894 23.7209L42.5677 24.719L38.0686 18.3107C37.7583 17.8687 37.4125 17.5067 37.0312 17.2246C36.645 16.9459 36.2409 16.7567 35.819 16.657C35.3922 16.5608 34.9535 16.5572 34.5029 16.6463C34.0508 16.7438 33.6063 16.9459 33.1692 17.2528Z" fill="#F7F7F2"/>
<path d="M25.8781 21.6408L27.1746 20.4714L35.8128 30.0481L34.5163 31.2176L25.8781 21.6408Z" fill="#F7F7F2"/>
<path d="M16.4368 43.2394C15.6584 42.6672 15.0408 42.0234 14.5839 41.3077C14.127 40.5921 13.8365 39.8425 13.7126 39.0588C13.5886 38.2752 13.6337 37.4743 13.8479 36.6562C14.0633 35.8465 14.4517 35.0597 15.0132 34.2959L17.8649 30.4162L28.2566 38.0547L25.4048 41.9344C24.8433 42.6982 24.2059 43.302 23.4926 43.7457C22.7805 44.1977 22.0296 44.4798 21.2398 44.5918C20.4549 44.7074 19.6527 44.6539 18.8334 44.4314C18.014 44.2088 17.2151 43.8115 16.4368 43.2394ZM17.4975 41.7963C18.1357 42.2654 18.7701 42.5977 19.4008 42.7932C20.0315 42.9887 20.6382 43.0549 21.2208 42.9917C21.8034 42.9285 22.3536 42.7372 22.8714 42.4178C23.3891 42.0984 23.8541 41.6583 24.2663 41.0975L26.084 38.6247L17.9694 32.6599L16.1517 35.1327C15.7395 35.6935 15.4582 36.2687 15.3079 36.8582C15.1575 37.4476 15.1367 38.0281 15.2454 38.5994C15.359 39.1744 15.6032 39.7336 15.978 40.2773C16.3529 40.8209 16.8594 41.3272 17.4975 41.7963Z" fill="#F7F7F2"/>
<path d="M8.77221 48.0555L7.52297 47.3762L11.2754 40.3709L22.6441 46.4606L18.8917 53.4659L17.6382 52.7945L20.5662 47.3283L16.7898 45.3054L14.4185 49.7323L13.2127 49.0864L15.584 44.6595L11.7045 42.5814L8.77221 48.0555Z" fill="#F7F7F2"/>
<path d="M14.7242 59.5531C14.6595 59.4704 14.6165 59.3897 14.5953 59.3109C14.5776 59.2399 14.5848 59.1623 14.617 59.0783C14.6535 58.983 14.7441 58.8892 14.8887 58.7969C15.0333 58.7045 15.1992 58.5817 15.3864 58.4286C15.5771 58.2831 15.7726 58.0914 15.973 57.8534C16.1713 57.6209 16.3445 57.3114 16.4927 56.9248C16.6322 56.5606 16.7052 56.2192 16.7117 55.9004C16.7216 55.5893 16.6791 55.3064 16.584 55.0515C16.4867 54.8022 16.3415 54.5859 16.1483 54.4026C15.9607 54.2215 15.7352 54.0805 15.4719 53.9796C15.1357 53.8508 14.8244 53.8247 14.5381 53.9013C14.2551 53.9857 13.9837 54.1323 13.7238 54.3411C13.4617 54.5555 13.2064 54.8111 12.9578 55.1078C12.7126 55.4122 12.4597 55.7201 12.1991 56.0315C11.9363 56.3484 11.661 56.6477 11.3731 56.9294C11.0888 57.2188 10.7774 57.4529 10.439 57.6317C10.0985 57.816 9.72625 57.924 9.32222 57.9555C8.91604 57.9927 8.46363 57.9157 7.96498 57.7246C7.43832 57.5228 6.97682 57.2432 6.58048 56.8857C6.18974 56.5304 5.89004 56.1136 5.68137 55.6353C5.47055 55.1626 5.36369 54.6365 5.3608 54.0571C5.35576 53.4833 5.4756 52.8771 5.72033 52.2383C6.02088 51.454 6.43358 50.7961 6.95845 50.2647C7.48892 49.7354 8.08202 49.3362 8.73775 49.067L9.33061 49.8339C9.37507 49.9023 9.4051 49.9749 9.42071 50.0515C9.43977 50.1359 9.43427 50.2174 9.40422 50.2958C9.37631 50.3686 9.31437 50.4381 9.21839 50.5041C9.12587 50.5779 9.01224 50.6564 8.87751 50.7398C8.74279 50.8231 8.59322 50.92 8.4288 51.0304C8.26439 51.1409 8.10086 51.2743 7.93823 51.4304C7.77345 51.5922 7.61301 51.7845 7.45692 52.0074C7.30644 52.2324 7.17216 52.4991 7.05409 52.8072C6.90597 53.1938 6.82717 53.5588 6.8177 53.9021C6.80823 54.2455 6.85903 54.5573 6.97009 54.8376C7.08461 55.1256 7.25487 55.3772 7.48087 55.5923C7.70688 55.8074 7.98516 55.9783 8.31572 56.1049C8.67991 56.2444 9.00906 56.2742 9.30317 56.1941C9.60075 56.1218 9.8795 55.9812 10.1394 55.7724C10.3993 55.5636 10.6491 55.3059 10.8886 54.9993C11.1338 54.6948 11.3811 54.3848 11.6305 54.0692C11.8856 53.7557 12.1553 53.4542 12.4397 53.1648C12.724 52.8754 13.0382 52.6424 13.3822 52.4657C13.7261 52.2891 14.1096 52.1854 14.5326 52.1548C14.959 52.1318 15.4384 52.2223 15.9707 52.4262C16.3965 52.5894 16.7771 52.8284 17.1127 53.1433C17.4461 53.4638 17.7068 53.84 17.8947 54.2718C18.0805 54.7093 18.1778 55.1931 18.1867 55.7234C18.1934 56.2593 18.0819 56.8269 17.8522 57.4264C17.5946 58.0988 17.2541 58.6687 16.8308 59.1362C16.4054 59.6093 15.9105 59.9787 15.3461 60.2443L14.7242 59.5531Z" fill="#F7F7F2"/>
<path d="M3.53113 60.0765L3.98056 58.3893L16.443 61.7091L15.9936 63.3962L3.53113 60.0765Z" fill="#F7F7F2"/>
<path d="M7.09537 76.7356L2.19279 76.052C1.81876 75.3456 1.56682 74.6108 1.43697 73.8475C1.31223 73.0911 1.31035 72.279 1.43131 71.4114C1.57465 70.3834 1.86138 69.4783 2.2915 68.6962C2.72756 67.9149 3.27184 67.2699 3.92435 66.7611C4.58197 66.2591 5.33385 65.9066 6.18001 65.7035C7.02616 65.5004 7.93058 65.4659 8.89327 65.6001C9.86784 65.736 10.7351 66.0114 11.4951 66.4263C12.2543 66.8472 12.8797 67.3797 13.3715 68.0238C13.8692 68.6687 14.2192 69.4172 14.4215 70.2693C14.6238 71.1214 14.6553 72.0466 14.5161 73.0449C14.4457 73.55 14.3416 74.0141 14.2039 74.4371C14.0721 74.861 13.9092 75.2472 13.7152 75.5958C13.5271 75.9451 13.3101 76.2632 13.0642 76.55C12.8242 76.8376 12.5603 77.1007 12.2726 77.3393L11.5565 76.7396C11.4485 76.6458 11.3853 76.534 11.367 76.4043C11.3539 76.2813 11.4023 76.1517 11.5121 76.0156C11.6152 75.8845 11.739 75.7352 11.8835 75.5676C12.0281 75.3999 12.1725 75.1898 12.3167 74.9373C12.4661 74.6916 12.6046 74.3929 12.7324 74.0412C12.8594 73.6954 12.9573 73.2759 13.026 72.7826C13.1263 72.0636 13.0982 71.3963 12.9417 70.7808C12.7911 70.1661 12.5245 69.6231 12.142 69.1518C11.7653 68.6813 11.2803 68.2926 10.687 67.9857C10.0997 67.6797 9.41972 67.4728 8.64719 67.3651C7.84495 67.2532 7.11017 67.2659 6.44283 67.403C5.78061 67.547 5.19725 67.7988 4.69273 68.1586C4.19333 68.5252 3.7855 68.9953 3.46923 69.5692C3.15296 70.143 2.94221 70.8073 2.83699 71.562C2.75414 72.1562 2.74618 72.6912 2.81312 73.167C2.88517 73.6496 3.00939 74.1273 3.18578 74.6002L5.99362 74.9917L6.27076 73.0039C6.28651 72.891 6.33203 72.8035 6.40734 72.7413C6.48182 72.685 6.56661 72.6635 6.66169 72.6768L7.6422 72.8135L7.09537 76.7356Z" fill="#F7F7F2"/>
<path d="M14.3731 87.7534L1.47771 87.9565L1.46396 87.0836C1.46178 86.9457 1.48394 86.8283 1.53042 86.7316C1.57699 86.6408 1.65657 86.5495 1.76913 86.4578L11.3704 78.8446C11.2206 78.8589 11.0738 78.8702 10.9299 78.8785C10.786 78.8868 10.651 78.8919 10.5251 78.8939L1.3372 79.0386L1.31309 77.5088L14.2085 77.3057L14.2227 78.2055C14.2239 78.2835 14.2189 78.3496 14.2078 78.4038C14.2026 78.4579 14.1884 78.5061 14.1651 78.5485C14.1477 78.5908 14.1184 78.6332 14.0771 78.6759C14.0417 78.7185 13.9944 78.7642 13.9352 78.8131L4.34296 86.4262C4.49875 86.4118 4.64854 86.3974 4.79233 86.3831C4.94222 86.3748 5.08315 86.3695 5.21514 86.3675L14.349 86.2235L14.3731 87.7534Z" fill="#F7F7F2"/>
<path d="M23.8446 130.045C23.9029 130.121 23.923 130.211 23.9048 130.316L23.7327 131.32C22.9258 131.273 22.1569 131.053 21.4258 130.66C20.6984 130.272 20.0102 129.655 19.3611 128.806C18.7996 128.073 18.4154 127.309 18.2085 126.515C18.0063 125.718 17.9717 124.932 18.1046 124.158C18.2423 123.38 18.5434 122.629 19.008 121.903C19.4725 121.177 20.0908 120.519 20.8627 119.928C21.6346 119.338 22.4352 118.918 23.2644 118.668C24.0936 118.419 24.907 118.337 25.7047 118.421C26.506 118.511 27.2681 118.766 27.991 119.188C28.7187 119.605 29.367 120.186 29.9358 120.929C30.4937 121.658 30.8693 122.391 31.0624 123.127C31.2555 123.863 31.3143 124.596 31.2385 125.327L30.2524 125.356C30.1829 125.364 30.1132 125.357 30.0434 125.335C29.982 125.314 29.9221 125.265 29.8637 125.189C29.7981 125.103 29.7632 124.964 29.7589 124.771C29.7594 124.574 29.7402 124.332 29.7014 124.044C29.6626 123.756 29.5736 123.428 29.4345 123.058C29.3 122.685 29.0651 122.279 28.7296 121.841C28.3249 121.312 27.8618 120.9 27.3405 120.603C26.824 120.304 26.2697 120.127 25.6775 120.074C25.089 120.026 24.4772 120.105 23.842 120.312C23.2067 120.518 22.5746 120.862 21.9457 121.343C21.3072 121.832 20.8071 122.358 20.4453 122.922C20.0872 123.491 19.8546 124.066 19.7474 124.646C19.6486 125.228 19.6728 125.803 19.8199 126.37C19.9707 126.942 20.2375 127.478 20.6204 127.979C20.8537 128.284 21.0801 128.545 21.2994 128.762C21.5271 128.981 21.7575 129.164 21.9905 129.31C22.2272 129.461 22.4702 129.581 22.7195 129.67C22.9772 129.76 23.2545 129.831 23.5514 129.884C23.6848 129.91 23.7826 129.964 23.8446 130.045Z" fill="#F7F7F2"/>
<path d="M30.777 130.921C31.1369 131.274 31.4959 131.542 31.8542 131.725C32.2209 131.908 32.574 132.011 32.9137 132.033C33.2618 132.055 33.5922 132.001 33.9049 131.87C34.2176 131.74 34.5062 131.54 34.7709 131.27C35.3085 130.721 35.5339 130.131 35.447 129.5C35.3602 128.869 34.9568 128.2 34.237 127.495L32.8746 126.159L29.466 129.636L30.777 130.921ZM30.3753 139.841L29.2699 138.758C29.0429 138.535 28.9619 138.283 29.027 138.003L29.8622 132.368C29.8901 132.194 29.8823 132.044 29.8386 131.917C29.8034 131.79 29.698 131.64 29.5223 131.468L28.5776 130.542L24.8098 134.385L23.5695 133.169L32.5982 123.96L35.201 126.511C35.7837 127.083 36.2283 127.636 36.5349 128.172C36.8456 128.703 37.0289 129.215 37.0847 129.707C37.1448 130.202 37.0858 130.674 36.9078 131.121C36.734 131.564 36.4559 131.981 36.0737 132.371C35.7545 132.696 35.4048 132.95 35.0248 133.132C34.6447 133.314 34.2448 133.422 33.8251 133.456C33.4139 133.489 32.9892 133.447 32.551 133.328C32.1171 133.214 31.6825 133.023 31.247 132.756C31.3174 133.001 31.3263 133.266 31.274 133.551L30.3753 139.841Z" fill="#F7F7F2"/>
<path d="M38.8176 143.941L37.9594 145.075L31.5923 140.32L39.3099 129.987L45.677 134.742L44.8261 135.882L39.8579 132.171L37.2943 135.603L41.3179 138.608L40.4993 139.704L36.4757 136.699L33.8422 140.225L38.8176 143.941Z" fill="#F7F7F2"/>
<path d="M48.3697 145.167L49.1274 139.594C49.1501 139.429 49.1818 139.241 49.2224 139.03C49.2659 138.814 49.3178 138.59 49.3782 138.356C49.0333 138.721 48.7249 139.013 48.453 139.233L44.1521 142.844L48.3697 145.167ZM49.2445 151.115L48.062 150.464C47.9254 150.389 47.8338 150.294 47.7874 150.179C47.7409 150.065 47.7256 149.943 47.7415 149.815L48.1875 146.505L43.1185 143.713L40.5598 145.859C40.4762 145.936 40.3694 145.987 40.2395 146.012C40.1097 146.036 39.979 146.012 39.8477 145.94L38.6652 145.288L49.4045 136.48L50.9497 137.331L49.2445 151.115Z" fill="#F7F7F2"/>
<path d="M62.4779 143.484L58.5776 141.992L54.4932 152.667L52.8709 152.047L56.9553 141.371L53.0466 139.876L53.5708 138.506L63.0021 142.114L62.4779 143.484Z" fill="#F7F7F2"/>
<path d="M61.3963 154.605L59.7071 154.163L62.9702 141.686L64.6593 142.127L61.3963 154.605Z" fill="#F7F7F2"/>
<path d="M78.9518 144.366L71.9711 156.417L70.42 156.201L66.9887 142.703L68.3705 142.895C68.525 142.917 68.6444 142.973 68.7288 143.063C68.8131 143.154 68.8708 143.262 68.9018 143.387L71.2512 152.9C71.3003 153.113 71.3441 153.343 71.3824 153.591C71.4266 153.839 71.4603 154.098 71.4834 154.368C71.5791 154.115 71.6762 153.874 71.7746 153.645C71.873 153.417 71.9749 153.207 72.0802 153.015L76.9248 144.502C76.9745 144.406 77.0556 144.323 77.1682 144.254C77.2876 144.18 77.4215 144.153 77.5701 144.174L78.9518 144.366Z" fill="#F7F7F2"/>
<path d="M86.0448 155.292L86.0358 156.714H78.0888V143.817H86.0358V145.239H79.8348V149.523H84.8568V150.891H79.8348V155.292H86.0448Z" fill="#F7F7F2"/>
<path d="M107.928 138.74L107.135 152.227L105.615 152.605L100.072 143.846C100.019 143.76 99.9655 143.668 99.9104 143.571C99.861 143.472 99.8073 143.368 99.7493 143.258C99.7491 143.382 99.7475 143.5 99.7444 143.612C99.7413 143.724 99.7368 143.83 99.7309 143.931L98.9156 154.27L97.3959 154.647L90.3808 143.102L91.787 142.752C91.9384 142.714 92.073 142.721 92.1908 142.772C92.3144 142.822 92.4053 142.901 92.4633 143.011L97.2109 151.067C97.2907 151.214 97.3705 151.374 97.4503 151.546C97.5359 151.716 97.6215 151.899 97.7071 152.094C97.6972 151.88 97.6902 151.678 97.6861 151.487C97.6864 151.289 97.6939 151.108 97.7087 150.944L98.49 141.513C98.5003 141.405 98.5448 141.298 98.6236 141.192C98.7067 141.079 98.821 141.004 98.9666 140.968L99.4557 140.846C99.6071 140.808 99.7388 140.816 99.8508 140.868C99.9627 140.921 100.056 141 100.132 141.105L105.229 149.074C105.319 149.213 105.406 149.364 105.49 149.529C105.58 149.692 105.669 149.865 105.758 150.047C105.739 149.847 105.726 149.656 105.717 149.472C105.709 149.289 105.706 149.117 105.709 148.955L106.141 139.611C106.144 139.499 106.185 139.39 106.264 139.284C106.348 139.176 106.463 139.104 106.609 139.068L107.928 138.74Z" fill="#F7F7F2"/>
<path d="M115.827 146.472L116.381 147.782L109.08 150.921L103.986 139.072L111.287 135.934L111.849 137.24L106.152 139.689L107.844 143.625L112.457 141.641L112.998 142.898L108.384 144.882L110.122 148.925L115.827 146.472Z" fill="#F7F7F2"/>
<path d="M121.415 142.95C121.842 142.694 122.18 142.424 122.431 142.141C122.681 141.859 122.851 141.571 122.942 141.279C123.035 140.978 123.055 140.679 123.002 140.382C122.947 140.079 122.831 139.782 122.656 139.488C122.313 138.917 121.84 138.589 121.236 138.503C120.629 138.412 119.919 138.61 119.106 139.098L116.713 140.532L119.022 144.384L121.415 142.95ZM113.811 135.692L116.074 139.467L118.05 138.282C118.472 138.029 118.81 137.764 119.063 137.486C119.321 137.206 119.502 136.923 119.604 136.638C119.711 136.35 119.744 136.06 119.703 135.77C119.659 135.475 119.553 135.188 119.387 134.91C118.995 134.257 118.514 133.898 117.944 133.834C117.371 133.765 116.673 133.977 115.849 134.471L113.811 135.692ZM115.141 133.29C115.821 132.882 116.445 132.599 117.014 132.44C117.588 132.277 118.106 132.226 118.568 132.285C119.035 132.34 119.452 132.504 119.817 132.774C120.179 133.04 120.494 133.397 120.762 133.844C120.926 134.117 121.04 134.406 121.103 134.71C121.169 135.007 121.182 135.314 121.141 135.632C121.101 135.95 121.002 136.275 120.845 136.607C120.689 136.931 120.469 137.252 120.184 137.57C121.089 137.237 121.873 137.162 122.536 137.346C123.201 137.521 123.74 137.953 124.153 138.643C124.434 139.111 124.602 139.591 124.659 140.082C124.72 140.57 124.667 141.053 124.499 141.531C124.336 142.006 124.059 142.466 123.668 142.911C123.274 143.35 122.768 143.754 122.15 144.125L118.244 146.466L111.614 135.404L115.141 133.29Z" fill="#F7F7F2"/>
<path d="M125.571 127.903C125.585 128.007 125.581 128.099 125.559 128.177C125.538 128.247 125.492 128.31 125.421 128.366C125.341 128.43 125.216 128.464 125.044 128.47C124.873 128.476 124.667 128.497 124.428 128.533C124.19 128.561 123.924 128.626 123.63 128.729C123.341 128.828 123.034 129.006 122.71 129.263C122.404 129.505 122.167 129.761 121.999 130.032C121.832 130.295 121.724 130.56 121.676 130.828C121.633 131.092 121.648 131.352 121.72 131.608C121.789 131.86 121.911 132.096 122.087 132.317C122.31 132.599 122.565 132.78 122.85 132.86C123.136 132.932 123.445 132.944 123.775 132.897C124.109 132.846 124.459 132.757 124.825 132.628C125.191 132.491 125.565 132.355 125.948 132.22C126.336 132.082 126.725 131.964 127.117 131.869C127.509 131.765 127.896 131.722 128.278 131.741C128.665 131.756 129.04 131.853 129.404 132.032C129.772 132.207 130.122 132.504 130.454 132.922C130.804 133.364 131.059 133.84 131.217 134.35C131.372 134.855 131.418 135.366 131.353 135.884C131.294 136.398 131.117 136.905 130.824 137.405C130.536 137.901 130.124 138.362 129.588 138.786C128.929 139.308 128.239 139.663 127.517 139.853C126.79 140.038 126.077 140.079 125.375 139.976L125.256 139.014C125.253 138.933 125.264 138.855 125.29 138.781C125.316 138.699 125.363 138.632 125.428 138.579C125.49 138.531 125.578 138.503 125.694 138.495C125.812 138.479 125.949 138.469 126.108 138.466C126.266 138.463 126.444 138.456 126.642 138.445C126.84 138.433 127.049 138.402 127.268 138.351C127.492 138.296 127.728 138.212 127.976 138.1C128.22 137.983 128.472 137.822 128.731 137.617C129.055 137.36 129.309 137.086 129.492 136.796C129.675 136.505 129.791 136.211 129.838 135.913C129.886 135.607 129.868 135.304 129.783 135.003C129.699 134.703 129.546 134.414 129.326 134.137C129.084 133.831 128.816 133.638 128.522 133.557C128.23 133.467 127.918 133.446 127.588 133.493C127.258 133.54 126.912 133.635 126.549 133.776C126.183 133.913 125.812 134.054 125.437 134.198C125.058 134.338 124.672 134.46 124.28 134.564C123.888 134.668 123.498 134.708 123.113 134.685C122.727 134.661 122.344 134.555 121.964 134.366C121.586 134.168 121.219 133.846 120.866 133.399C120.582 133.041 120.377 132.642 120.249 132.2C120.125 131.754 120.093 131.298 120.151 130.83C120.214 130.359 120.377 129.893 120.64 129.433C120.908 128.968 121.293 128.537 121.796 128.138C122.36 127.691 122.944 127.374 123.546 127.188C124.154 126.998 124.768 126.932 125.389 126.992L125.571 127.903Z" fill="#F7F7F2"/>
<path d="M135.467 133.159L134.22 134.382L125.192 125.172L126.438 123.95L135.467 133.159Z" fill="#F7F7F2"/>
<path d="M135.793 115.155L133.149 118.387L141.995 125.624L140.895 126.969L132.049 119.731L129.399 122.97L128.263 122.041L134.657 114.226L135.793 115.155Z" fill="#F7F7F2"/>
<path d="M148.161 113.484L149.364 114.242L145.171 120.993L134.215 114.189L138.408 107.438L139.616 108.188L136.344 113.456L139.984 115.716L142.633 111.45L143.795 112.172L141.146 116.438L144.884 118.76L148.161 113.484Z" fill="#F7F7F2"/>
<path d="M146.384 69.2409C146.477 69.2896 146.549 69.3456 146.601 69.4087C146.646 69.4662 146.672 69.5399 146.677 69.6298C146.683 69.7316 146.638 69.8543 146.545 69.9979C146.451 70.1415 146.35 70.3216 146.242 70.5382C146.128 70.749 146.028 71.0042 145.943 71.3035C145.858 71.5969 145.827 71.9502 145.851 72.3636C145.873 72.7529 145.947 73.0943 146.072 73.3876C146.191 73.6752 146.346 73.9158 146.537 74.1091C146.728 74.2965 146.949 74.434 147.201 74.5218C147.446 74.6098 147.71 74.6458 147.991 74.6296C148.351 74.609 148.645 74.505 148.875 74.3175C149.098 74.1244 149.285 73.8793 149.437 73.5821C149.588 73.279 149.715 72.9411 149.82 72.5685C149.919 72.1902 150.023 71.8056 150.133 71.4147C150.242 71.0178 150.37 70.6318 150.517 70.2568C150.657 69.8761 150.845 69.5348 151.08 69.2328C151.315 68.9248 151.61 68.6735 151.965 68.4788C152.321 68.2782 152.765 68.1625 153.298 68.1319C153.861 68.0996 154.396 68.165 154.905 68.3282C155.407 68.4917 155.851 68.7486 156.238 69.0991C156.624 69.4435 156.938 69.8792 157.178 70.4063C157.419 70.9274 157.558 71.5294 157.598 72.2123C157.646 73.0509 157.54 73.8202 157.279 74.5203C157.013 75.2207 156.636 75.8283 156.149 76.3431L155.293 75.8873C155.225 75.8432 155.168 75.7894 155.122 75.7259C155.07 75.6568 155.041 75.5803 155.037 75.4964C155.032 75.4185 155.06 75.3298 155.12 75.2302C155.174 75.1249 155.246 75.0066 155.334 74.8753C155.423 74.744 155.52 74.5942 155.624 74.426C155.729 74.2577 155.823 74.069 155.907 73.8598C155.991 73.6447 156.058 73.4034 156.109 73.1361C156.154 72.8691 156.167 72.5708 156.148 72.2414C156.124 71.8281 156.046 71.4629 155.914 71.146C155.781 70.8291 155.607 70.5656 155.391 70.3557C155.168 70.1401 154.909 69.9806 154.615 69.8773C154.32 69.774 153.997 69.7325 153.643 69.7528C153.254 69.7751 152.941 69.8832 152.706 70.077C152.465 70.2652 152.268 70.5078 152.117 70.805C151.966 71.1021 151.844 71.4397 151.751 71.8176C151.653 72.1959 151.555 72.5801 151.457 72.9704C151.353 73.3609 151.231 73.7466 151.091 74.1272C150.95 74.5079 150.759 74.8494 150.518 75.1517C150.277 75.454 149.97 75.706 149.597 75.9077C149.218 76.1038 148.744 76.2182 148.175 76.2508C147.719 76.2769 147.274 76.2153 146.839 76.066C146.403 75.9107 146.011 75.6748 145.662 75.3583C145.313 75.0358 145.026 74.6346 144.8 74.1547C144.574 73.6689 144.442 73.1055 144.405 72.4645C144.364 71.7457 144.44 71.0863 144.634 70.4862C144.828 69.8801 145.128 69.34 145.533 68.866L146.384 69.2409Z" fill="#F7F7F2"/>
<path d="M156.375 64.1666L156.658 65.8895L143.931 67.981L143.648 66.2582L156.375 64.1666Z" fill="#F7F7F2"/>
<path d="M141.831 53.5475L142.955 57.5694L153.963 54.4929L154.431 56.1658L143.422 59.2423L144.549 63.2728L143.136 63.6677L140.418 53.9423L141.831 53.5475Z" fill="#F7F7F2"/>
<path d="M147.576 42.4683L148.888 41.9197L152 49.2318L140.134 54.2831L137.021 46.971L138.329 46.414L140.758 52.1196L144.7 50.4417L142.733 45.821L143.992 45.2852L145.959 49.9059L150.008 48.1822L147.576 42.4683Z" fill="#F7F7F2"/>
<path d="M127.626 33.6098L141.171 30.3711L142.083 31.6441L134.66 43.428L133.848 42.294C133.757 42.1672 133.715 42.042 133.722 41.9186C133.73 41.7951 133.768 41.6789 133.838 41.57L139.117 33.315C139.237 33.1328 139.374 32.9425 139.527 32.7442C139.677 32.541 139.842 32.3381 140.021 32.1356C139.772 32.2406 139.53 32.3362 139.297 32.4223C139.063 32.5084 138.841 32.5792 138.63 32.6346L129.121 34.9856C129.017 35.0157 128.901 35.0138 128.773 34.9798C128.637 34.9444 128.525 34.8657 128.438 34.7438L127.626 33.6098Z" fill="#F7F7F2"/>
<path d="M136.115 24.5908L137.292 25.8808L127.763 34.5717L126.586 33.2817L136.115 24.5908Z" fill="#F7F7F2"/>
<path d="M118.134 23.6163L121.268 26.3753L128.82 17.7953L130.124 18.9429L122.572 27.5229L125.714 30.2879L124.745 31.3891L117.164 24.7175L118.134 23.6163Z" fill="#F7F7F2"/>
<path d="M117.617 17.9818C117.198 17.7023 116.795 17.5061 116.409 17.393C116.014 17.2816 115.648 17.2468 115.31 17.2885C114.964 17.3318 114.65 17.4467 114.367 17.6332C114.084 17.8196 113.838 18.0701 113.628 18.3847C113.202 19.0238 113.091 19.6454 113.294 20.2494C113.497 20.8534 114.018 21.4349 114.857 21.9938L116.445 23.0518L119.145 18.9999L117.617 17.9818ZM116.347 9.14325L117.635 10.0016C117.9 10.1779 118.026 10.41 118.015 10.6979L118.246 16.3891C118.251 16.5655 118.287 16.7119 118.353 16.8284C118.411 16.9465 118.543 17.0738 118.748 17.2102L119.849 17.9438L122.833 13.465L124.278 14.4281L117.127 25.1609L114.094 23.1397C113.415 22.6873 112.875 22.2265 112.473 21.7573C112.069 21.2931 111.793 20.8247 111.647 20.3522C111.495 19.8763 111.465 19.402 111.557 18.9294C111.645 18.4617 111.84 18.0007 112.143 17.5464C112.396 17.1669 112.692 16.8523 113.031 16.6026C113.371 16.3529 113.743 16.1722 114.149 16.0606C114.547 15.9507 114.972 15.9132 115.425 15.948C115.873 15.9795 116.335 16.0859 116.813 16.2672C116.698 16.0392 116.64 15.7804 116.638 15.4909L116.347 9.14325Z" fill="#F7F7F2"/>
<path d="M113.673 8.2019L115.226 8.99897L109.338 20.4737L107.785 19.6766L113.673 8.2019Z" fill="#F7F7F2"/>
<path d="M94.3517 14.4457L98.8014 2.3406L99.6208 2.64181C99.7504 2.68942 99.8519 2.75231 99.9254 2.83049C99.9933 2.90659 100.05 3.01367 100.095 3.15172L103.744 14.8491C103.785 14.7041 103.827 14.5631 103.871 14.4258C103.915 14.2886 103.959 14.1609 104.002 14.0426L107.173 5.41785L108.609 5.94574L104.159 18.0508L103.314 17.7403C103.241 17.7134 103.181 17.685 103.135 17.6551C103.086 17.6308 103.046 17.6002 103.015 17.5631C102.982 17.5318 102.953 17.4891 102.928 17.4352C102.901 17.3869 102.875 17.3263 102.851 17.2535L99.1985 5.56456C99.1559 5.71512 99.1154 5.86005 99.077 5.99935C99.0309 6.14221 98.9851 6.27558 98.9395 6.39948L95.7877 14.9735L94.3517 14.4457Z" fill="#F7F7F2"/>
<path d="M89.1374 2.11299L89.4428 0.724156L97.215 2.38201L94.5245 14.9952L86.7523 13.3374L87.049 11.9467L93.1135 13.2403L94.0072 9.05055L89.0957 8.0029L89.3811 6.66499L94.2926 7.71265L95.2107 3.40848L89.1374 2.11299Z" fill="#F7F7F2"/>
<circle cx="147.5" cy="95.5" r="3.5" fill="#F7F7F2"/>
<circle cx="12.5" cy="105.5" r="3.5" fill="#F7F7F2"/>
<circle cx="76.5" cy="7.5" r="3.5" fill="#F7F7F2"/>
</svg>
